<svg xmlns="http://www.w3.org/2000/svg" xmlns:xlink="http://www.w3.org/1999/xlink" width="131.714" height="79.845" viewBox="0 0 131.714 79.845">
  <defs>
    <clipPath id="clip-path">
      <path id="Path_13" data-name="Path 13" d="M0,8.389H131.714V-71.456H0Z" transform="translate(0 71.456)" fill="none"/>
    </clipPath>
  </defs>
  <g id="Group_16" data-name="Group 16" transform="translate(0 71.456)">
    <g id="Group_15" data-name="Group 15" transform="translate(0 -71.456)" clip-path="url(#clip-path)">
      <g id="Group_11" data-name="Group 11" transform="translate(68.183 0.569)">
        <path id="Path_9" data-name="Path 9" d="M.179,1.134H59.7A1.715,1.715,0,0,0,61.41-.58V-7.949A1.715,1.715,0,0,0,59.7-9.663H.179a1.715,1.715,0,0,0-1.7,1.714V-.58a1.716,1.716,0,0,0,1.7,1.714" transform="translate(1.525 9.663)" fill="#fff"/>
      </g>
      <g id="Group_12" data-name="Group 12" transform="translate(68.183 16.108)">
        <path id="Path_10" data-name="Path 10" d="M2.538,1.134H17.15A1.033,1.033,0,0,1,18.18,2.648L10.442,22.37c-.329.834-.864.834-1.189,0L1.515,2.648A1.032,1.032,0,0,1,2.538,1.134M-20,53.548h8.122a1.628,1.628,0,0,0,1.62-1.627V4.481L8.568,52.247c.7,1.786,1.855,1.786,2.555,0L29.947,4.481v47.44a1.629,1.629,0,0,0,1.624,1.627h8.122a1.629,1.629,0,0,0,1.621-1.627V-8.035a1.628,1.628,0,0,0-1.621-1.627H-20a1.629,1.629,0,0,0-1.622,1.627V51.921A1.63,1.63,0,0,0-20,53.548" transform="translate(21.621 9.662)" fill="#fff"/>
      </g>
      <g id="Group_13" data-name="Group 13" transform="translate(0.522 68.56)">
        <path id="Path_11" data-name="Path 11" d="M6.434,0H-53.092A1.718,1.718,0,0,0-54.8,1.714V9.083A1.717,1.717,0,0,0-53.092,10.8H6.434A1.716,1.716,0,0,0,8.139,9.083V1.714A1.717,1.717,0,0,0,6.434,0" transform="translate(54.801)" fill="#fff"/>
      </g>
      <g id="Group_14" data-name="Group 14" transform="translate(0.522 0.57)">
        <path id="Path_12" data-name="Path 12" d="M4.074,5.511H-10.537a1.033,1.033,0,0,1-1.027-1.516l7.738-19.721c.329-.832.86-.832,1.189,0L5.1,3.995A1.034,1.034,0,0,1,4.074,5.511M26.617-46.9H18.488a1.627,1.627,0,0,0-1.618,1.627V2.163L-1.949-45.6c-.707-1.784-1.856-1.784-2.562,0L-23.331,2.163V-45.276A1.628,1.628,0,0,0-24.955-46.9h-8.122A1.629,1.629,0,0,0-34.7-45.276V14.68a1.63,1.63,0,0,0,1.625,1.628H26.617a1.631,1.631,0,0,0,1.62-1.628V-45.276a1.629,1.629,0,0,0-1.62-1.627" transform="translate(34.702 46.942)" fill="#fff"/>
      </g>
    </g>
  </g>
</svg>
